/* XPM */
static const char *bulb[] = {
/* columns rows colors chars-per-pixel */
"52 52 168 2",
"   c #37373CBC3E3E",
".  c #3F3F43434444",
"X  c #424246464545",
"o  c #454548484343",
"O  c #48484D4D4E4E",
"+  c #5BDC5B5B4DCD",
"@  c #515155555656",
"#  c #59595D5D5D5D",
"$  c #62625F5F4A4A",
"%  c #66666A6A6A6A",
"&  c #34346565A4A4",
"*  c #3CBC6BECA8A8",
"=  c #55557C7C9A9A",
"-  c #59597E7E9A9A",
";  c #41416F6FABAB",
":  c #46467171A3A3",
">  c #43437171AAAA",
",  c #484873F4A4A4",
"<  c #49497676ADAD",
"1  c #4C4C7878AFAF",
"2  c #48487777B5B5",
"3  c #4C4C7AD0B60B",
"4  c #53537B7BA9A9",
"5  c #51917CFCB333",
"6  c #56568080B6B6",
"7  c #54548282BD3D",
"8  c #5BB183D9B660",
"9  c #59598585BDBD",
"0  c #71718E8E9292",
"q  c #737390908E8E",
"w  c #7A7A94948C8C",
"e  c #61618989BABA",
"r  c #6EEF9211B5B5",
"t  c #6EC492E8BF14",
"y  c #73739292B3B3",
"u  c #62628C8CC3C3",
"i  c #60608F8FCACA",
"p  c #69698F8FC0C0",
"a  c #66669191C6C6",
"s  c #650592B2CD4C",
"d  c #6C169191C1C1",
"f  c #6C6C9640CBCB",
"g  c #6F6F9999CCCC",
"h  c #73739696C140",
"j  c #77779C9CC6C6",
"k  c #73739B9BCF68",
"l  c #79799C9CC4C4",
"z  c #79799E9ECCCC",
"x  c #77779F9FD2D2",
"c  c #7D7DA0A0C7C7",
"v  c #7D7DA120CCCC",
"b  c #7D27A3A3D429",
"n  c #B0B092920808",
"m  c #B9B999990505",
"M  c #B2B2ADAD4E4E",
"N  c #ABABB43371F2",
"B  c #BBBBBCBC6969",
"V  c #C3C39F9F0101",
"C  c #C605A22201C2",
"Z  c #CECEAE2E0E0E",
"A  c #C6C6A6A61616",
"S  c #CFCFAFAF1010",
"D  c #C9C9A9A91A1A",
"F  c #D3D3B2B21414",
"G  c #C7C7AEAE3C3C",
"H  c #C3C3ABAB4040",
"J  c #D0D0B7B74848",
"K  c #D4D4BDBD5858",
"L  c #CCCCBEBE7B7B",
"P  c #DE9EC1C123A4",
"I  c #E0E0C4C42727",
"U  c #E160C6C628A8",
"Y  c #E565CBCB2E2E",
"T  c #E6E6CD4D30B1",
"R  c #E968CFCF33B4",
"E  c #EAEAD2513636",
"W  c #EDEDD5D53ABA",
"Q  c #F170DADA3F3F",
"!  c #D7D7C0C05C5C",
"~  c #DADAD2D25D5D",
"^  c #D7D7C1C16060",
"/  c #D8D8C3C36565",
"(  c #DB30C71C6E6E",
")  c #DC5BC9C974F4",
"_  c #E2E2D8D85A5A",
"`  c #F6F6E1E146C7",
"'  c #F7F7E2E24949",
"]  c #FA24E63B4C21",
"[  c #FCF3E9E04F42",
"{  c #FCFCE9E95050",
"}  c #FCFCEAEA5AB0",
"|  c #FD7DED6D6AEB",
" . c #FDFDEEEE7979",
".. c #8B8B8D8D8D8D",
"X. c #8C0B9F1F8201",
"o. c #9E1E9E9E9E9E",
"O. c #A2A2A3A3A3A3",
"+. c gray68",
"@. c #B434B434B434",
"#. c #BC97BC97BC97",
"$. c #8282A1A1C51A",
"%. c #8630A66DC9E6",
"&. c #8908A727CACA",
"*. c #8CB9AAD7CB72",
"=. c #8585A7A7D1D1",
"-. c #8787A928D352",
";. c #8C0CABEBD0D0",
":. c #9292AEAECD3E",
">. c #9090ADADD2D2",
",. c #9538B182CEE5",
"<. c #9898B2B2CF4F",
"1. c #9656B2F2D191",
"2. c #9393B2B2D9D9",
"3. c #9B4EB602D32C",
"4. c #9E9EB94BD3F8",
"5. c #A3AABC04D5F2",
"6. c #A626BEA9D999",
"7. c #A8DBBF8CD9A6",
"8. c #ACACC326DAE1",
"9. c #B27BC6FDDD13",
"0. c #B58ACA58DF42",
"q. c #BB2FCC11DD68",
"w. c #BFBFD0D0DCDC",
"e. c #AEAEC5C5E2E2",
"r. c #B433C948E463",
"t. c #BBD0CE9BE271",
"y. c #BE68D0D0E38D",
"u. c #C6C6BABA8383",
"i. c #DBDBD4D4B5B5",
"p. c #E2E2D3D39292",
"a. c #E767DCDCAB2B",
"s. c #FDFDEFEF8181",
"d. c #FDFDF1F18D8D",
"f. c #EBEBE3E3BFBF",
"g. c #FDFDF474A4A4",
"h. c #FEFEF5F5AEAE",
"j. c #FEFEF5F5B0B0",
"k. c #C3EEC3EEC3EE",
"l. c #CC21CC04CBAE",
"z. c #C4C4D4D4DFDF",
"x. c #D42FD42FD42F",
"c. c #D8D8D7D7D1D1",
"v. c #DD01DD01DD01",
"b. c #C3F0D4D9E59E",
"n. c #C61BD680E8E8",
"m. c #C957D72CE439",
"M. c #C8C8D7D7E8E8",
"N. c #CAEFD96BE52D",
"B. c #CC13DB02EA8E",
"V. c #D1BADE3AEBBC",
"C. c #D56EE255EE47",
"Z. c #DAFAE423EF2E",
"A. c #DC4DE674F146",
"S. c #DEDEE982F325",
"D. c #E1E1DBDBC1C1",
"F. c #EC96E53AC3C3",
"G. c #EEEEE8E8CCCC",
"H. c #FEFEF7F7C2C2",
"J. c #E4DDE4DDE4DD",
"K. c #E0E0E5E5EDED",
"L. c #E4E4E9E9EFEF",
"P. c #EBE5EBE5EBE5",
"I. c #E54AEC9EF41D",
"U. c #E98BEF77F586",
"Y. c #EC8CF171F6AB",
"T. c #F2F2EEEEE0E0",
"R. c None",
"E. c #FFFFFF7FFC3B",
/* pixels */
"R.R.R.R.R.R.R.R.R.R.R.R.R.R.R.R.R.R.R.R.R.R.R.R.R.R.R.R.R.R.R.R.R.R.R.R.R.R.R.R.R.R.R.R.R.R.R.R.R.R.R.R.",
"R.R.R.R.R.R.R.R.R.R.R.R.R.R.R.R.R.R.R.R.R.R.R.R.R.R.R.R.R.R.R.R.R.R.R.R.R.R.R.R.R.R.R.R.R.R.R.R.R.R.R.R.",
"R.R.R.R.R.R.R.R.R.R.R.R.R.R.R.R.R.R.R.R.R.R.R.R.R.R.R.R.R.R.R.R.R.R.R.R.R.R.R.R.R.R.R.R.R.R.R.R.R.R.R.R.",
"R.R.R.R.R.R.R.R.R.R.R.R.R.R.R.R.R.R.R.R.R.R.R.I.B.b.B.A.U.R.R.R.R.R.R.R.R.R.R.R.R.R.R.R.R.R.R.R.R.R.R.R.",
"R.R.R.R.R.R.R.R.R.R.R.R.R.R.R.R.R.R.R.R.V.2.i s k x k s i x r.Y.R.R.R.R.R.R.R.R.R.R.R.R.R.R.R.R.R.R.R.R.",
"R.R.R.R.R.R.R.R.R.R.R.R.R.R.R.R.R.R.A.b f -.7.q.t.q.q.b.0.3.x f r.Y.R.R.R.R.R.R.R.R.R.R.R.R.R.R.R.R.R.R.",
"R.R.R.R.R.R.R.R.R.R.R.R.R.R.R.R.R.r.s -.r.8.3.*.&.%.&.&.:.6.t.5.x x I.R.R.R.R.R.R.R.R.R.R.R.R.R.R.R.R.R.",
"R.R.R.R.R.R.R.R.R.R.R.R.R.R.R.R.e.s 6.7.*.&.&.*.<.5.5.:.*.*.*.5.0.%.f S.R.R.R.R.R.R.R.R.R.R.R.R.R.R.R.R.",
"R.R.R.R.R.R.R.R.R.R.R.R.R.R.R.t.f 6.5.%.&.1.y.S.I.I.I.I.C.8.:.*.>.9.*.g Y.R.R.R.R.R.R.R.R.R.R.R.R.R.R.R.",
"R.R.R.R.R.R.R.R.R.R.R.R.R.R.A.f 5.3.%.*.6.S.I.I.I.I.I.I.I.P.B.<.,.*.9.v =.R.R.R.R.R.R.R.R.R.R.R.R.R.R.R.",
"R.R.R.R.R.R.R.R.R.R.R.R.R.R.b *.5.%.*.3.S.I.I.U.I.I.U.I.U.U.I.b.<.,.<.8.a V.R.R.R.R.R.R.R.R.R.R.R.R.R.R.",
"R.R.R.R.R.R.R.R.R.R.R.R.R.B.k 7.&.*.*.y.I.U.I.U.I.U.U.U.U.U.U.I.4.,.<.4.1.f R.R.R.R.R.R.R.R.R.R.R.R.R.R.",
"R.R.R.R.R.R.R.R.R.R.R.R.R.-.*.3.*.*.,.V.I.U.U.U.U.U.U.U.U.U.U.U.8.<.<.<.9.u Z.R.R.R.R.R.R.R.R.R.R.R.R.R.",
"R.R.R.R.R.R.R.R.R.R.R.R.R.s 6.:.<.q.5.B.U.U.U.U.Y.Y.Y.Y.U.U.U.U.7.5.3.3.7.z 5.R.R.R.R.R.R.R.R.R.R.R.R.R.",
"R.R.R.R.R.R.R.R.R.R.R.R.B.k 6.*.N.S.M.8.U.U.Y.Y.Y.Y.Y.Y.Y.Y.Y.C.6.5.3.3.5.3.f R.R.R.R.R.R.R.R.R.R.R.R.R.",
"R.R.R.R.R.R.R.R.R.R.R.R.y.x 5.3.S.S.V.5.n.U.Y.Y.U.I.I.U.Y.Y.I.0.8.7.5.5.3.7.9 R.R.R.R.R.R.R.R.R.R.R.R.R.",
"R.R.R.R.R.R.R.R.R.R.R.R.8.v 5.8.S.S.N.5.8.3.0.B.V.Z.C.Z.y.*.h 3.7.9.7.5.4.9.2 R.R.R.R.R.R.R.R.R.R.R.R.R.",
"R.R.R.R.R.R.R.R.R.R.R.R.e.v 5.8.L.I.0.<.* 6 *.y.B.C.C.B.y.8.j & $.9.7.5.5.9.3 R.R.R.R.R.R.R.R.R.R.R.R.R.",
"R.R.R.R.R.R.R.R.R.R.R.R.b.f 8.<.C.M.8.c * t.y.y.y.M.B.n.B.y.y.3 3.r.9.7.7.3.p R.R.R.R.R.R.R.R.R.R.R.R.R.",
"R.R.R.R.R.R.R.R.R.R.R.R.Y.7 8.4.3.5.8.8.* 0.y.n.V.B.V.V.V.B.9.> q.t.9.7.0.t 8.R.R.R.R.R.R.R.R.R.R.R.R.R.",
"R.R.R.R.R.R.R.R.R.R.R.R.R.>.$.8.4.5.8.9.8 *.n.M.B.C.C.C.C.V.v t b.r.7.7.6.5 R.R.R.R.R.R.R.R.R.R.R.R.R.R.",
"R.R.R.R.R.R.R.R.R.R.R.R.R.L.7 8.8.5.8.0.6.8.n.B.C.C.A.S.C.C.8 3.b.0.0.b.e z.R.R.R.R.R.R.R.R.R.R.R.R.R.R.",
"R.R.R.R.R.R.R.R.R.R.R.R.R.R.>.l 0.5.8.0.t.y.B.V.C.S.S.S.A.M.< y.b.t.b.5.5 R.R.R.R.R.R.R.R.R.R.R.R.R.R.R.",
"R.R.R.R.R.R.R.R.R.R.R.R.R.R.U.3 8.9.9.0.y.y.B.V.C.S.I.I.S.8.c V.b.t.b.5 V.R.R.R.R.R.R.R.R.R.R.R.R.R.R.R.",
"R.R.R.R.R.R.R.R.R.R.R.R.R.R.R.6.a y.8.0.y.b.n.C.C.S.I.I.S.;.8.B.b.b.5.5 R.R.R.R.R.R.R.R.R.R.R.R.R.R.R.R.",
"R.R.R.R.R.R.R.R.R.R.R.R.R.R.R.Y.2 8.t.0.y.y.M.V.C.S.S.S.S.-.B.n.b.M.t 5.R.R.R.R.R.R.R.R.R.R.R.R.R.R.R.R.",
"R.R.R.R.R.R.R.R.R.R.R.R.R.R.R.R.%.c t.9.t.y.N.V.V.C.S.C.n.8.B.n.b.M.; L.R.R.R.R.R.R.R.R.R.R.R.R.R.R.R.R.",
"R.R.R.R.R.R.R.R.R.R.R.R.R.R.R.R.z.6 y.0.t.y.y.N.B.V.C.C.y.y.B.y.b.5.8 R.R.R.R.R.R.R.R.R.R.R.R.R.R.R.R.R.",
"R.R.R.R.R.R.R.R.R.R.R.R.R.R.R.R.R.6 ,.t.9.q.w.z.z.C.N.C.y.B.b.y.b.5 q.R.R.R.R.R.R.R.R.R.R.R.R.R.R.R.R.R.",
"R.R.R.R.R.R.R.R.R.R.R.R.R.R.R.R.R.q.1 8.w.q.q.w.z.z.z.z.M.b.b.M.t h R.R.R.R.R.R.R.R.R.R.R.R.R.R.R.R.R.R.",
"R.R.R.R.R.R.R.R.R.R.R.R.R.R.R.R.R.R.,., :.w.z.z.z.N.z.N.z.w.4.6 y R.R.R.R.R.R.R.R.R.R.R.R.R.R.R.R.R.R.R.",
"R.R.R.R.R.R.R.R.R.R.R.R.R.R.R.R.R.R.T.M = , y $.:.<.,.%.r * 0 B ) R.R.R.R.R.R.R.R.R.R.R.R.R.R.R.R.R.R.R.",
"R.R.R.R.R.R.R.R.R.R.R.R.R.R.R.R.R.R.f.F [ ~ N X.w 0 q X.N _ [ I a.R.R.R.R.R.R.R.R.R.R.R.R.R.R.R.R.R.R.R.",
"R.R.R.R.R.R.R.R.R.R.R.R.R.R.R.R.R.R.! E } H.d.{ [ [ [ [ { ] E C G.R.R.R.R.R.R.R.R.R.R.R.R.R.R.R.R.R.R.R.",
"R.R.R.R.R.R.R.R.R.R.R.R.R.R.R.R.R.R./ I [ | | { [ [ [ [ [ [ { P ( R.R.R.R.R.R.R.R.R.R.R.R.R.R.R.R.R.R.R.",
"R.R.R.R.R.R.R.R.R.R.R.R.R.R.R.R.R.R.F.C W  . .{ [ [ [ [ [ [ ] Z a.R.R.R.R.R.R.R.R.R.R.R.R.R.R.R.R.R.R.R.",
"R.R.R.R.R.R.R.R.R.R.R.R.R.R.R.R.R.R.) T } E.E.[ [ [ [ [ [ ] Y C G.R.R.R.R.R.R.R.R.R.R.R.R.R.R.R.R.R.R.R.",
"R.R.R.R.R.R.R.R.R.R.R.R.R.R.R.R.R.R.^ T { h.g.[ [ [ [ [ { { { P ( R.R.R.R.R.R.R.R.R.R.R.R.R.R.R.R.R.R.R.",
"R.R.R.R.R.R.R.R.R.R.R.R.R.R.R.R.R.R.F.C W s. .[ [ [ [ [ { [ ] S p.R.R.R.R.R.R.R.R.R.R.R.R.R.R.R.R.R.R.R.",
"R.R.R.R.R.R.R.R.R.R.R.R.R.R.R.R.R.R.) T } E.E.[ [ [ [ [ { [ { P ! R.R.R.R.R.R.R.R.R.R.R.R.R.R.R.R.R.R.R.",
"R.R.R.R.R.R.R.R.R.R.R.R.R.R.R.R.R.Y.K R { j.g.[ [ [ [ [ { { { I J P.P.R.R.R.R.R.R.R.R.R.R.R.R.R.R.R.R.R.",
"R.R.R.R.R.R.R.R.R.R.R.R.R.R.Y.P.P.J.i.D P Q ' ] ' ' ` Q R I S D i.J.J.J.P.P.P.R.R.R.R.R.R.R.R.R.R.R.R.R.",
"R.R.R.R.R.R.R.R.R.R.R.R.R.P.P.J.J.J.v.c.L G m C V V V V n H u.l.x.v.v.J.J.J.P.P.R.R.R.R.R.R.R.R.R.R.R.R.",
"R.R.R.R.R.R.R.R.R.R.R.R.P.P.J.J.v.v.x.l.k.#.% o + $ + X # @.@.#.k.l.c.v.v.J.J.P.P.R.R.R.R.R.R.R.R.R.R.R.",
"R.R.R.R.R.R.R.R.R.R.R.P.P.J.J.J.v.v.x.l.k.#.@.@   X   O o.+.+.@.k.l.x.v.v.J.J.P.P.P.R.R.R.R.R.R.R.R.R.R.",
"R.R.R.R.R.R.R.R.R.R.R.R.R.P.P.J.J.J.v.x.l.l.k.#.O...o.@.#.k.k.l.l.x.v.v.J.J.P.P.R.R.R.R.R.R.R.R.R.R.R.R.",
"R.R.R.R.R.R.R.R.R.R.R.R.R.R.P.P.J.J.J.J.v.v.v.x.x.x.x.x.x.c.c.v.v.J.J.J.P.P.P.Y.R.R.R.R.R.R.R.R.R.R.R.R.",
"R.R.R.R.R.R.R.R.R.R.R.R.R.R.R.R.R.P.P.P.J.P.J.J.J.J.J.J.J.J.J.J.J.P.P.P.P.R.R.R.R.R.R.R.R.R.R.R.R.R.R.R.",
"R.R.R.R.R.R.R.R.R.R.R.R.R.R.R.R.R.R.R.R.R.R.R.Y.P.R.P.R.P.R.R.R.R.R.R.R.R.R.R.R.R.R.R.R.R.R.R.R.R.R.R.R.",
"R.R.R.R.R.R.R.R.R.R.R.R.R.R.R.R.R.R.R.R.R.R.R.R.R.R.R.R.R.R.R.R.R.R.R.R.R.R.R.R.R.R.R.R.R.R.R.R.R.R.R.R.",
"R.R.R.R.R.R.R.R.R.R.R.R.R.R.R.R.R.R.R.R.R.R.R.R.R.R.R.R.R.R.R.R.R.R.R.R.R.R.R.R.R.R.R.R.R.R.R.R.R.R.R.R.",
"R.R.R.R.R.R.R.R.R.R.R.R.R.R.R.R.R.R.R.R.R.R.R.R.R.R.R.R.R.R.R.R.R.R.R.R.R.R.R.R.R.R.R.R.R.R.R.R.R.R.R.R."
};
