/* XPM */
static const char *icon_datetime[] = {
/* columns rows colors chars-per-pixel */
"16 16 24 1",
"  c black",
". c gray4",
"X c #2C2C2C2C2C2C",
"o c #3E3E3E3E3E3E",
"O c gray25",
"+ c #414141414141",
"@ c gray29",
"# c gray33",
"$ c gray43",
"% c #767676767676",
"& c gray48",
"* c #888888888888",
"= c #929292929292",
"- c #A2A2A2A2A2A2",
"; c #A4A4A4A4A4A4",
": c #A9A9ABABA7A7",
"> c gray68",
", c #B1B1B1B1B1B1",
"< c gray71",
"1 c #B9B9B9B9B9B9",
"2 c gray84",
"3 c gray87",
"4 c gray100",
"5 c None",
/* pixels */
"555OOOOOOOOO$555",
"555O24444442O$55",
"555O24:::::2O4$5",
"55OOOOOOO242OOO$",
"5#@<344<@#22$$$o",
"O@3333344@O2444O",
"O13333334<O2::4O",
"O333333334O2444O",
"O3333.&&&4O2::4O",
"O,333;2333O2444O",
"O%3333%23<O2::4O",
"X@$333*33@O2444O",
"5#@$<33<@#1:::4O",
"55OOOOOOX144444O",
"555O*=->1222222O",
"555OOOOOOoOOOOOO"
};
