/* XPM */
static const char *icon_picture[] = {
/* columns rows colors chars-per-pixel */
"16 16 98 2",
"   c black",
".  c #0C0C03030000",
"X  c #0C0C04040000",
"o  c #252519190000",
"O  c #35350F0F0A0A",
"+  c #2C2C29290C0C",
"@  c #303028280E0E",
"#  c #3F3F2A2A0E0E",
"$  c #34342F2F1414",
"%  c #303033331212",
"&  c #353533331919",
"*  c #3E3E35351616",
"=  c #2A2A31313737",
"-  c #3F3F3F3F3F3F",
";  c #484823230B0B",
":  c #454530300E0E",
">  c #43433F3F0A0A",
",  c #4C4C32320A0A",
"<  c #434331311818",
"1  c #494939391010",
"2  c #565622220101",
"3  c #53533C3C0000",
"4  c #5E5E37370F0F",
"5  c #515134341010",
"6  c #57573A3A1212",
"7  c #5A5A3A3A1212",
"8  c #686834340808",
"9  c #757524240202",
"0  c #404048481D1D",
"q  c #545445451A1A",
"w  c #57574E4E1B1B",
"e  c #5D5D5F5F1313",
"r  c #636343430000",
"t  c #686847471212",
"y  c #686850501C1C",
"u  c #707053531A1A",
"i  c #777751511919",
"p  c #727259591E1E",
"a  c #757559591818",
"s  c #7F7F56561111",
"d  c #66666F6F1C1C",
"f  c #727271711B1B",
"g  c #747477772525",
"h  c #414141414141",
"j  c #42424D4D5E5E",
"k  c #535363637777",
"l  c #6D6D6D6D6D6D",
"z  c #60607C7C9A9A",
"x  c #60607F7FA0A0",
"c  c #5F5F8484B3B3",
"v  c #66668585AFAF",
"b  c #62628787BCBC",
"n  c #66668B8BBEBE",
"m  c #6A6AA4A4EFEF",
"M  c #7272A8A8F0F0",
"N  c #7575ABABF0F0",
"B  c #7575ACACF1F1",
"V  c #7979AFAFF5F5",
"C  c #86865B5B1818",
"Z  c #8E8E57571515",
"A  c #999957570707",
"S  c #AEAE65650D0D",
"D  c #A3A361611111",
"F  c #A0A06C6C1D1D",
"G  c #ABAB6C6C1A1A",
"H  c #CECE86860707",
"J  c #C9C98C8C0101",
"K  c #D7D790901212",
"L  c #D3D39A9A2121",
"P  c #858583838080",
"I  c #9A9A9A9A9A9A",
"U  c #A4A4A4A4A4A4",
"Y  c #A9A9ABABA7A7",
"T  c #B1B1B1B1B1B1",
"R  c #8383AEAEE3E3",
"E  c #8181AEAEE5E5",
"W  c #8484AFAFE5E5",
"Q  c #8484B1B1E3E3",
"!  c #8484B2B2E3E3",
"~  c #8787B2B2E6E6",
"^  c gray76",
"/  c #CBCBCBCBCBCB",
"(  c gray80",
")  c #CECECECECDCD",
"_  c #CFCFCECECDCD",
"`  c #CFCFD0D0CECE",
"'  c #CFCFD0D0D2D2",
"]  c #D0D0CECECDCD",
"[  c #D1D1D0D0CECE",
"{  c #D0D0D1D1D2D2",
"}  c #D0D0D1D1D3D3",
"|  c #D7D7D7D7D7D7",
" . c #DFDFDFDFDEDE",
".. c #E6E6E6E6E5E5",
"X. c #EDEDEDEDECEC",
"o. c gray99",
"O. c #FEFEFEFEFEFE",
"+. c None",
/* pixels */
"+.+.+.- - - - - - - - - l +.+.+.",
"+.+.+.- / O.O.O.O.O.O.| h l +.+.",
"+.+.+.- _ O.Y Y Y Y Y | h O.l +.",
"{ { { ' } { |  ...X.X.| h h h l ",
"{ ~ E R W Q Q Q V V X.| l l l h ",
"{ B m M N N B V V B ..o.O.O.O.h ",
"' b n c v x z k j =  .Y Y Y O.- ",
"_ r J 3 . o X       | o.O.O.O.- ",
"{ H A K t 7 5 # : , _ Y Y Y O.- ",
"] 6 ; < y 4 C C G 8 _ O.O.O.O.- ",
"] 1 w < y i w F O D ] Y Y Y O.- ",
"] @ $ g 0 a K p & % _ O.O.O.O.- ",
"] e + d f S 9 2 s > _ Y Y Y O.- ",
"} ] ] [ ] _ _ _ _ _ ' o.O.o.O.- ",
"+.+.+.h P P I U T ^ / | | | | - ",
"+.+.+.- - - - - - - - - - - - - "
};
