/* XPM */
static const char *icon_attachment[] = {
/* columns rows colors chars-per-pixel */
"16 16 41 1",
"  c black",
". c #3A3A3A3A3A3A",
"X c #3F3F3F3F3F3F",
"o c gray25",
"O c #444444444444",
"+ c #484848484848",
"@ c #4C4C4C4C4C4C",
"# c #505050505050",
"$ c #565656565656",
"% c gray35",
"& c #5F5F5F5F5F5F",
"* c #606060606060",
"= c gray40",
"- c gray42",
"; c #6C6C6C6C6C6C",
": c #727272727272",
"> c #797979797979",
", c #7C7C7C7C7C7C",
"< c #838383838383",
"1 c #848484848484",
"2 c #8E8E8E8E8E8E",
"3 c #939393939393",
"4 c #979797979797",
"5 c gray60",
"6 c #A9A9ABABA7A7",
"7 c gray67",
"8 c #AEAEAEAEAEAE",
"9 c #B1B1B1B1B1B1",
"0 c #B9B9B9B9B9B9",
"q c #BCBCBCBCBCBC",
"w c #C0C0C0C0C0C0",
"e c gray76",
"r c #CECECECECECE",
"t c #D5D5D5D5D5D5",
"y c #D8D8D8D8D8D8",
"u c #E2E2E2E2E2E2",
"i c #E6E6E6E6E6E6",
"p c #EEEEEEEEEEEE",
"a c gray99",
"s c gray100",
"d c None",
/* pixels */
"dddoooooooXX-ddd",
"dddotsssssatX;dd",
"d;oX;u66666tos;d",
"-o,4&$ysssstooo;",
"o;d-$=+r666t;;;o",
"4+dX*$;Oqsssssso",
"X4oXi=#:o86666sX",
"=o4X2i-+>o4ssssX",
"d;O4.3i-O,.666so",
"dd=@3.3i;#8X>sso",
"ddd%#3.<:O40.6so",
"dddo+%3O+9pp1@so",
"dddoro=666664osX",
"dddotqX;ippi#*so",
"dddott8.+1,+oqto",
"dddooXXoXXoooooo"
};
