/* XPM */
static const char *help_xpm[] = {
"16 16 3 1",
" 	c None",
"!	c black",
"#	c #FFFF00",
"                ",
"     !!!!!!     ",
"    !#####!!    ",
"   !##!!!##!!   ",
"   !#!!  !#!!   ",
"   !#!! !##!!   ",
"    !! !##!!    ",
"      !##!!     ",
"      !#!!      ",
"      !#!!      ",
"      !#!!      ",
"       !!       ",
"      !##!!     ",
"      !##!!     ",
"       !!!      ",
"                "};

