/* XPM */
static const char *key[] = {
/* columns rows colors chars-per-pixel */
"16 16 102 2",
"   c #D67C29",
".  c #D67D29",
"X  c #D67F29",
"o  c #B88333",
"O  c #BA8634",
"+  c #BB8835",
"@  c #BF8B35",
"#  c #B28838",
"$  c #B58B39",
"%  c #B78D39",
"&  c #BA903A",
"*  c #D7812B",
"=  c #D7822B",
"-  c #D8852C",
";  c #C18E36",
":  c #C88831",
">  c #C98A32",
",  c #CA8A32",
"<  c #CA8B32",
"1  c #CB8B32",
"2  c #CC9033",
"3  c #C2953B",
"4  c #C89539",
"5  c #D19636",
"6  c #DA9030",
"7  c #DD9832",
"8  c #DFA139",
"9  c #E3A93E",
"0  c #EEC528",
"q  c #EEC828",
"w  c #EFC92B",
"e  c #F0D228",
"r  c #EFC932",
"t  c #EFCD34",
"y  c #F0CE38",
"u  c #F2CE3C",
"i  c #F5D437",
"p  c #F1D139",
"a  c #F2D639",
"s  c #F1D13D",
"d  c #F3D63D",
"f  c #DFAB42",
"g  c #E1AC42",
"h  c #E3AC42",
"j  c #E3B044",
"k  c #E3B245",
"l  c #F1D643",
"z  c #F4D741",
"x  c #F2D647",
"c  c #F4D843",
"v  c #F5DB48",
"b  c #F5DD49",
"n  c #F3D84E",
"m  c #F5DB4D",
"M  c #F6DC4E",
"N  c #F3D750",
"B  c #F5DB5D",
"V  c #EAC46F",
"C  c #F6DF69",
"Z  c #EAC576",
"A  c #F7E465",
"S  c #F6E47B",
"D  c #F6E17F",
"F  c #F7E47E",
"G  c #F3DA8B",
"H  c #F5E182",
"J  c #F6E083",
"K  c #F7E580",
"L  c #F7E581",
"P  c #F7E582",
"I  c #F7E285",
"U  c #FBEF85",
"Y  c #F7E289",
"T  c #F7E18A",
"R  c #F8E789",
"E  c #F8E78D",
"W  c #F8E994",
"Q  c #F7E69F",
"!  c #F9EB9E",
"~  c #F9ECA1",
"^  c #F9EAAB",
"/  c #FAEEAC",
"(  c #FCF3A0",
")  c #FCF5A9",
"_  c #FCF5AE",
"`  c #FAEEB0",
"'  c #FAEFBB",
"]  c #F8E9BC",
"[  c #FBF1BB",
"{  c #FBF1BC",
"}  c #FBF2BE",
"|  c #F7EBC4",
" . c #FBF4C6",
".. c #FDF8C1",
"X. c #FCF5CE",
"o. c #FCF7D5",
"O. c #FCF8DE",
"+. c #FEFCEE",
"@. c #FEFCF0",
"#. c #FEFCF1",
"$. c #FFFFFE",
"%. c None",
/* pixels */
"%.%.%.%.%.%.%.%.j j j j %.%.%.%.",
"%.%.%.%.%.%.%.j j O.O.j j %.%.%.",
"%.%.%.%.%.%.j j X.! } $.j f %.%.",
"%.%.%.%.%.j j X.E ~ j j %.8 4 %.",
"%.%.%.%.%.j O.E F W ] h h +.7 4 ",
"%.%.%.%.%.j } F F K W } G b ..6 ",
"%.%.%.%.%.j o.R F F F K x p _   ",
"%.%.%.%.%.j V K s B C N t U   O ",
"%.%.j g j Z / a M A u r U = + %.",
"%.%.j #.} F e i H 9 ( ) = @ %.%.",
"j j j / n w d T < o   - ; %.%.%.",
"j #.` z q z T 1 # %.%.%.%.%.%.%.",
"j } p 0 M H 1 $ %.%.%.%.%.%.%.%.",
"j  .l v H : % %.%.%.%.%.%.%.%.%.",
"h | D Q < & %.%.%.%.%.%.%.%.%.%.",
"%.5 2 < 3 %.%.%.%.%.%.%.%.%.%.%."
};
