/* XPM */
static const char *page_link[] = {
/* columns rows colors chars-per-pixel */
"16 16 21 1",
"  c black",
". c gray11",
"X c #232323232323",
"o c gray21",
"O c #3A3A3A3A3A3A",
"+ c #3E3E3E3E3E3E",
"@ c gray25",
"# c #414141414141",
"$ c gray36",
"% c #5D5D5D5D5D5D",
"& c #6D6D6D6D6D6D",
"* c #818181818181",
"= c #A9A9ABABA7A7",
"- c #ACACACACACAC",
"; c #AEAEAEAEAEAE",
": c #C3C3C3C3C3C3",
"> c #C6C6C6C6C6C6",
", c #D5D5D5D5D5D5",
"< c gray84",
"1 c gray99",
"2 c None",
/* pixels */
"222@@@@@@@@@&222",
"222@,111111,@&22",
"222@,1=====,#1&2",
"OOO+,111111<#@@&",
"O;;OOOO,===<&&&@",
"O%;;O;;O<111111#",
"2O%;-+;;@,===-1@",
"2OO%&@+;;O<1111@",
"2O-O+1=O>>O,==1@",
"2O;;O111O;-O,11@",
"22O;;O==OO;O<=1@",
"222O;>OO%;OO,11@",
"222O+:;O%;;O,=1@",
"222@1O;;O$;;+,1@",
"222@,,OOOO%;@<<@",
"222@@@X. oOOO@@@"
};
