/* XPM */
static const char *text_underline[] = {
/* columns rows colors chars-per-pixel */
"16 16 36 1",
"  c gray1",
". c #070707",
"X c #0C0C0C",
"o c gray7",
"O c gray9",
"+ c #1B1B1B",
"@ c gray11",
"# c #1E1E1E",
"$ c gray13",
"% c gray14",
"& c gray15",
"* c #282828",
"= c gray17",
"- c #2F2F2F",
"; c gray22",
": c #3F3F3F",
"> c #414141",
", c gray29",
"< c #4B4B4B",
"1 c gray31",
"2 c #515151",
"3 c #535353",
"4 c #585858",
"5 c gray35",
"6 c #5B5B5B",
"7 c #606060",
"8 c gray38",
"9 c #676767",
"0 c #686868",
"q c #6D6D6D",
"w c gray43",
"e c gray45",
"r c #747474",
"t c gray46",
"y c #777777",
"u c None",
/* pixels */
"uuuuuuuuuuuuuuuu",
"uuuuuuuuuuuuuuuu",
"uuuuyyyuuu86uuuu",
"uuuuyyuuuuu3uuuu",
"uuuuewuuuuu,uuuu",
"uuuuw0uuuuu>uuuu",
"uuuu98uuuuu;uuuu",
"uuuu66uuuuu-uuuu",
"uuuu43uuuuu&uuuu",
"uuuu1,uuuuu@uuuu",
"uuuuu:;uuu@uuuuu",
"uuuuuu-=$+uuuuuu",
"uuuuuuuuuuuuuuuu",
"uuuu=&@+oX. uuuu",
"uuuuuuuuuuuuuuuu",
"uuuuuuuuuuuuuuuu"
};
