/* XPM */ 
static const char * text_bg_color_xpm[] = {
"16 16 8 1",
" 	c None",
"!	c black",
"#	c #FFB8B8",
"$	c #FF9C9C",
"%	c #D0FFB8",
"&	c #BAFF97",
"'	c #B3B3FF",
"(	c #9C9CFF",
"                ",
"                ",
"  ############  ",
"  #!!!!!!!!!!#  ",
"  #!$$$!!$$$!#  ",
"  #$$$$!!$$$$#  ",
"  #$$$$!!$$$$#  ",
"  %&&&&!!&&&&%  ",
"  %&&&&!!&&&&%  ",
"  %&&&&!!&&&&%  ",
"  %&&&&!!&&&&%  ",
"  '((((!!(((('  ",
"  '((((!!(((('  ",
"  '(((!!!!((('  ",
"  ''''''''''''  ",
"                "};
