/* XPM */
static const char *text_bold[] = {
/* columns rows colors chars-per-pixel */
"16 16 37 1",
"  c gray5",
". c gray6",
"X c #131313",
"o c #191919",
"O c gray11",
"+ c gray12",
"@ c gray14",
"# c gray15",
"$ c gray16",
"% c #2D2D2D",
"& c #2F2F2F",
"* c #343434",
"= c gray21",
"- c gray22",
"; c gray25",
": c #414141",
"> c #444444",
", c gray27",
"< c #464646",
"1 c gray29",
"2 c gray30",
"3 c #4E4E4E",
"4 c #535353",
"5 c gray33",
"6 c #585858",
"7 c gray35",
"8 c #5B5B5B",
"9 c #5F5F5F",
"0 c #606060",
"q c gray39",
"w c #656565",
"e c DimGray",
"r c #6A6A6A",
"t c gray44",
"y c #747474",
"u c #777777",
"i c None",
/* pixels */
"iiiiiiiiiiiiiiii",
"iiiiiiiiiiiiiiii",
"iiiiiiiiiiiiiiii",
"iiiiyytiwq7iiiii",
"iiiiieeii751iiii",
"iiiiiwwiii3:iiii",
"iiiii97ii<<-iiii",
"iiiii75i<<=iiiii",
"iiiii41ii*-@iiii",
"iiiii3:iii@%iiii",
"iiiii<-iiiO$iiii",
"iiiii:%iii@.iiii",
"iiii=%@@oX.iiiii",
"iiiiiiiiiiiiiiii",
"iiiiiiiiiiiiiiii",
"iiiiiiiiiiiiiiii"
};
