/* XPM */ 
static const char * text_no_format_xpm[] = {
"16 16 2 1",
" 	c None",
"!	c black",
"                ",
"                ",
"                ",
"   !!!!!!!!!!   ",
"   !   !!   !   ",
"       !!       ",
"       !!       ",
"       !!       ",
"       !!       ",
"       !!       ",
"       !!       ",
"       !!       ",
"       !!       ",
"      !!!!      ",
"                ",
"                "};
