/* XPM */
static const char *text_italic[] = {
/* columns rows colors chars-per-pixel */
"16 16 27 1",
"  c #191919",
". c gray12",
"X c gray15",
"o c #282828",
"O c #2D2D2D",
"+ c #323232",
"@ c #343434",
"# c #353535",
"$ c gray22",
"% c #3C3C3C",
"& c #414141",
"* c #444444",
"= c gray27",
"- c #464646",
"; c #494949",
": c #4C4C4C",
"> c gray31",
", c gray32",
"< c #535353",
"1 c gray33",
"2 c gray34",
"3 c gray35",
"4 c gray37",
"5 c #606060",
"6 c #656565",
"7 c gray42",
"8 c None",
/* pixels */
"8888888888888888",
"8888888888888888",
"8888888888888888",
"88888887653<8888",
"8888888853888888",
"888888883:888888",
"88888881<=888888",
"8888888:;8888888",
"8888888=%8888888",
"888888&=+8888888",
"888888$$88888888",
"888888@o88888888",
"8888@OX. 8888888",
"8888888888888888",
"8888888888888888",
"8888888888888888"
};
