/* XPM */ 
static const char * text_color_xpm[] = {
"16 16 5 1",
" 	c None",
"!	c black",
"#	c #FF3939",
"$	c #6666CC",
"%	c #66CC33",
"                ",
"                ",
"                ",
"   ##########   ",
"   #   ##   #   ",
"       ##       ",
"       $$       ",
"       $$       ",
"       $$       ",
"       $$       ",
"       %%       ",
"       %%       ",
"       %%       ",
"      %%%%      ",
"                ",
"                "};
