/* XPM */
static const char *text_strikethrough[] = {
/* columns rows colors chars-per-pixel */
"16 16 27 1",
"  c gray5",
". c gray8",
"X c #161616",
"o c #181818",
"O c gray11",
"+ c #1E1E1E",
"@ c gray15",
"# c gray17",
"$ c #2D2D2D",
"% c #323232",
"& c #373737",
"* c #3C3C3C",
"= c gray24",
"- c #484848",
"; c #515151",
": c gray33",
"> c #555555",
", c gray35",
"< c #5B5B5B",
"1 c #5F5F5F",
"2 c #606060",
"3 c gray39",
"4 c gray40",
"5 c gray43",
"6 c gray44",
"7 c #777777",
"8 c None",
/* pixels */
"8888888888888888",
"8888888888888888",
"8888888888888888",
"8888886882,88888",
"8888858888;88888",
"8888844888-88888",
"888882,>88888888",
"88888,>;-=888888",
"88777772=X888888",
"888888888$%O8888",
"8888888888OX8888",
"88888&8888X88888",
"88888$@888 88888",
"8888888888888888",
"8888888888888888",
"8888888888888888"
};
